<?xml version="1.0" encoding="utf-8"?>
<!-- Generator: Adobe Illustrator 22.1.0, SVG Export Plug-In . SVG Version: 6.00 Build 0)  -->
<svg version="1.1" id="Layer_1" xmlns="http://www.w3.org/2000/svg" xmlns:xlink="http://www.w3.org/1999/xlink" x="0px" y="0px"
	 viewBox="0 0 128.5 133.8" style="enable-background:new 0 0 128.5 133.8;" xml:space="preserve">
<style type="text/css">
	.st0{fill:#636363;}
</style>
<path class="st0" d="M81.5,15.1C63.9-3.9,34.2-5.1,15.1,12.5C-3.9,30.1-5.1,59.8,12.5,78.9s47.3,20.3,66.4,2.7
	C97.9,63.9,99.1,34.2,81.5,15.1z M68,69.8C55.4,81.4,35.8,80.6,24.2,68S13.4,35.8,26,24.2S58.2,13.4,69.8,26S80.6,58.2,68,69.8z"/>
<path class="st0" d="M127.2,126.8l-6.4,5.9c-1.7,1.6-4.3,1.4-5.9-0.2L77.8,92.2c-1.6-1.7-1.4-4.3,0.2-5.9l6.4-5.9
	c1.7-1.6,4.3-1.4,5.9,0.2l37.1,40.2C129,122.6,128.9,125.2,127.2,126.8z"/>
</svg>
