<?xml version="1.0" encoding="utf-8"?>
<!-- Generator: Adobe Illustrator 22.1.0, SVG Export Plug-In . SVG Version: 6.00 Build 0)  -->
<svg version="1.1" id="Graphic" xmlns="http://www.w3.org/2000/svg" xmlns:xlink="http://www.w3.org/1999/xlink" x="0px" y="0px"
	 viewBox="0 0 198.8 198.8" style="enable-background:new 0 0 198.8 198.8;" xml:space="preserve">
<style type="text/css">
	.st0{fill:#E9484F;}
	.st1{opacity:0.2;fill:#FFFFFF;enable-background:new    ;}
	.st2{enable-background:new    ;}
	.st3{fill:#FFFFFF;}
	.st4{fill:#E63138;}
	.st5{fill:#CD191F;}
	.st6{fill:#B6161B;}
</style>
<g id="conception_1_">
	<path id="flag_1_" class="st0 flag" d="M104.1,41.5c-0.8-0.1,8.5-19.8,8.5-19.8L103.4,0c41.1,1.6,75.7,28.1,89.3,64.9l-16.7,16
		c0,0-22.2-2.1-22.3-2.3C145.9,58.2,126.8,43.3,104.1,41.5"/>
	<circle id="circle1" class="st1" cx="148" cy="40.4" r="11.2"/>
	<g class="st2">
		<path class="st3" d="M146.2,43.2c-1.3,0-2.2-1.1-2.2-2.5s0.9-2.5,2.2-2.5s2.2,1.1,2.2,2.5S147.5,43.2,146.2,43.2z M146.2,39.1
			c-0.7,0-1.1,0.7-1.1,1.6s0.4,1.6,1.1,1.6s1.1-0.7,1.1-1.6S146.8,39.1,146.2,39.1z"/>
		<path class="st3" d="M150.3,38.1h0.7v4.9H150v-3.8l-0.9,0.2l-0.2-0.9L150.3,38.1z"/>
	</g>
</g>
<g id="pre-production_1_">
	<path id="flag_2_" class="st4 flag" d="M155.9,86c-0.2-0.8,21.5,2,21.5,2l17.7-15.5c11.2,39.6-3.4,80.7-34.1,105l-20.3-11
		c0,0-4.9-21.8-4.7-21.9C152.9,130.8,161.2,108.1,155.9,86"/>
	<circle id="circle2" class="st1" cx="173" cy="129.4" r="11.2"/>
	<g class="st2">
		<path class="st3" d="M170.8,131.9c-1.3,0-2.2-1.1-2.2-2.5s0.9-2.5,2.2-2.5s2.2,1.1,2.2,2.5S172.1,131.9,170.8,131.9z M170.8,127.8
			c-0.7,0-1.1,0.7-1.1,1.6s0.4,1.6,1.1,1.6s1.1-0.7,1.1-1.6S171.5,127.8,170.8,127.8z"/>
		<path class="st3" d="M174.5,128.5l-0.8-0.6c0.5-0.7,1-1,1.8-1c1,0,1.7,0.6,1.7,1.5c0,0.8-0.4,1.2-1.3,1.9l-0.8,0.6h2.1v0.9h-3.6
			V131l1.6-1.3c0.6-0.5,0.8-0.8,0.8-1.2c0-0.4-0.3-0.6-0.7-0.6C175.1,127.8,174.8,128.1,174.5,128.5z"/>
	</g>
</g>
<g id="shooting_1_">
	<path fill="#cd191f" id="flag_3_" class="st flag" d="M129.6,149c0.7-0.4,4.7,21.1,4.7,21.1l20.2,12c-34.2,22.8-77.8,21.8-110.4,0l4.1-22.7
		c0,0,19.2-11.4,19.4-11.3C86.1,160,110.2,160.8,129.6,149"/>
	<circle id="circle3" class="st1" cx="94" cy="177.4" r="11.2"/>
	<g class="st2">
		<path class="st3" d="M91.7,180.3c-1.3,0-2.2-1.1-2.2-2.5s0.9-2.5,2.2-2.5s2.2,1.1,2.2,2.5S93,180.3,91.7,180.3z M91.7,176.2
			c-0.7,0-1.1,0.7-1.1,1.6s0.4,1.6,1.1,1.6s1.1-0.7,1.1-1.6S92.4,176.2,91.7,176.2z"/>
		<path class="st3" d="M94.7,176.2v-0.9h3.3v0.8l-1.2,1.2c0.7,0.1,1.3,0.5,1.3,1.4c0,0.9-0.7,1.6-1.8,1.6c-0.9,0-1.5-0.4-1.9-0.8
			l0.7-0.7c0.3,0.4,0.7,0.6,1.2,0.6c0.4,0,0.7-0.2,0.7-0.6c0-0.4-0.3-0.6-1-0.6h-0.4l-0.2-0.7l1.2-1.2H94.7z"/>
	</g>
</g>
<g id="post-production_1_">
	<path id="flag_4_" class="st5 flag" d="M61.6,143.4c0.6,0.5-18.6,11-18.6,11l-5.2,22.9C5.5,151.9-6.9,110.1,3.7,72.4l22.9-3.1
		c0,0,16.8,14.7,16.7,15C37.6,105.4,44.3,128.6,61.6,143.4"/>
	<circle id="circle4" class="st1" cx="25" cy="118.4" r="11.2"/>
	<g class="st2">
		<path class="st3" d="M22.5,121.4c-1.3,0-2.2-1.1-2.2-2.5s0.9-2.5,2.2-2.5s2.2,1.1,2.2,2.5S23.8,121.4,22.5,121.4z M22.5,117.3
			c-0.7,0-1.1,0.7-1.1,1.6s0.4,1.6,1.1,1.6s1.1-0.7,1.1-1.6S23.2,117.3,22.5,117.3z"/>
		<path class="st3" d="M28.9,116.4v3h0.7v0.9h-0.7v1.1h-1v-1.1h-2.4l-0.2-0.8l2.7-3.1H28.9z M27.8,117.8l-1.3,1.5h1.3V117.8z"/>
	</g>
</g>
<g id="distriution">
	<path id="flag_5_" class="st6 flag" d="M45.8,77c-0.3,0.7-16.2-14.3-16.2-14.3L6.2,64.9C20.4,26.3,56.3,1.6,95.5,0l10,20.8
		c0,0-8.8,20.5-9.1,20.5C74.6,42.5,54.6,55.9,45.8,77"/>
	<circle id="circle5" class="st1" cx="56" cy="33.4" r="11.2"/>
	<g class="st2">
		<path class="st3" d="M53.7,36.2c-1.3,0-2.2-1.1-2.2-2.5s0.9-2.5,2.2-2.5s2.2,1.1,2.2,2.5S55,36.2,53.7,36.2z M53.7,32.1
			c-0.7,0-1.1,0.7-1.1,1.6s0.4,1.6,1.1,1.6s1.1-0.7,1.1-1.6S54.4,32.1,53.7,32.1z"/>
		<path class="st3" d="M57,31.2h3v0.9H58L57.9,33c0.2,0,0.4-0.1,0.6-0.1c1,0,1.7,0.5,1.7,1.6c0,1-0.7,1.7-1.9,1.7
			c-0.8,0-1.4-0.3-1.8-0.7l0.7-0.8c0.4,0.3,0.7,0.5,1.2,0.5c0.5,0,0.8-0.2,0.8-0.7c0-0.4-0.3-0.7-0.9-0.7c-0.3,0-0.6,0.1-0.8,0.2
			l-0.6-0.4L57,31.2z"/>
	</g>
</g>
</svg>
