<?xml version="1.0" encoding="utf-8"?>
<!-- Generator: Adobe Illustrator 22.1.0, SVG Export Plug-In . SVG Version: 6.00 Build 0)  -->
<svg version="1.1" id="Layer_1" xmlns="http://www.w3.org/2000/svg" xmlns:xlink="http://www.w3.org/1999/xlink" x="0px" y="0px"
	 viewBox="0 0 376.6 87.2" style="enable-background:new 0 0 376.6 87.2;" xml:space="preserve">
<style type="text/css">
	.st0{fill:#E31B23;}
</style>
<title>Logo1_White_Vector</title>
<path class="st0" d="M333,0c12.7,0,24.9,5.6,33.1,15.3c-15.7-14.8-40.4-14.2-55.2,1.5c-14.8,15.7-14.2,40.4,1.5,55.2
	c15.1,14.3,38.7,14.3,53.8,0c-15.7,18.3-43.2,20.4-61.5,4.7C286.4,61,284.3,33.5,300,15.2C308.2,5.5,320.3,0,333,0L333,0z"/>
<path class="st0" d="M339.7,6.7c-10.8,0-21,4.7-28,12.9c13.2-12.5,34.1-11.9,46.7,1.3c12.5,13.2,11.9,34.1-1.3,46.7
	c-12.7,12-32.6,12-45.4,0c13.2,15.5,36.5,17.3,52,4c15.5-13.2,17.3-36.5,4-52C360.8,11.4,350.5,6.7,339.7,6.7z"/>
<path class="st0" d="M306.8,50.7l3-2.8c1.1,1.5,2.9,2.4,4.8,2.4c1.6,0,2.8-0.9,2.8-2.4v-0.1c0-1.6-1.4-2.5-3.9-2.5h-1.8l-0.7-2.8
	l4.7-4.7h-7.7v-3.7h13.3v3.3l-5,4.8c2.7,0.5,5.3,1.9,5.3,5.5v0.1c0,3.7-2.7,6.4-7.1,6.4C311.5,54.3,308.6,53,306.8,50.7z"/>
<path class="st0" d="M327,52c-1.4-1.4-2.3-3.5-2.3-7.5v-0.1c0-6.1,2.8-10.8,8.6-10.8c2.3-0.1,4.4,0.7,6.2,2.2l-2.3,3.4
	c-1.1-1-2.5-1.6-4-1.6c-3,0-3.8,2.8-4,4.6c1.2-0.8,2.6-1.3,4.1-1.3c3.9,0,6.9,2.2,6.9,6.3l0,0c0,4-3.2,6.8-7.5,6.8
	C330.6,54.2,328.6,53.5,327,52z M335.9,47.5L335.9,47.5c0-1.7-1.3-2.9-3.4-2.9s-3.4,1.2-3.4,2.9v0c0,1.7,1.3,2.9,3.4,2.9
	S335.9,49.2,335.9,47.5L335.9,47.5z"/>
<path class="st0" d="M343.3,44L343.3,44c0-5.8,3.5-10.2,8.8-10.2s8.7,4.4,8.7,10.1V44c0,5.7-3.5,10.2-8.8,10.2S343.3,49.7,343.3,44z
	 M356.4,44L356.4,44c0-3.6-1.7-6.3-4.3-6.3s-4.3,2.6-4.3,6.2V44c0,3.6,1.7,6.3,4.3,6.3S356.4,47.6,356.4,44z"/>
<path class="st0" d="M26.6,52.8c-3.4,3.3-6.4,4.7-10.3,4.7C9.2,57.5,3.7,51.6,3.7,44s5.4-13.3,12.5-13.3c3.8,0,7.5,1.6,10.1,4.4
	l0.5,0.5l2.6-2.6l-0.5-0.5c-2.9-2.7-6.5-5.2-12.6-5.2C7.2,27.3,0,34.7,0,44.1v0.1c0,9.5,7,16.8,16.2,16.8c6.3,0,10-2.9,12.9-5.6
	l0.5-0.5L27,52.4L26.6,52.8z"/>
<path class="st0" d="M57.5,27.3c-10.3,0-16.4,8.6-16.4,16.8v0.1c0,9.5,7,16.8,16.3,16.8c10.2,0,16.3-8.4,16.4-16.6l0.3-0.3l-0.3-0.3
	C73.7,34.3,66.7,27.3,57.5,27.3z M70.1,44.1L70.1,44.1c0,7.7-5.4,13.4-12.6,13.4S44.8,51.6,44.8,44s5.4-13.3,12.6-13.3
	S70.1,36.6,70.1,44.1z"/>
<polygon class="st0" points="113.2,53.8 92.5,27.8 89.4,27.8 89.4,60.4 92.9,60.4 92.9,33.8 113.8,60.2 114,60.4 116.7,60.4 
	116.7,27.8 113.2,27.8 "/>
<path class="st0" d="M158.9,52.8c-3.4,3.3-6.4,4.7-10.3,4.7c-7.1,0-12.6-5.9-12.6-13.5s5.4-13.3,12.5-13.3c3.8,0,7.5,1.6,10.1,4.4
	l0.5,0.5l2.6-2.6l-0.5-0.5c-2.9-2.7-6.5-5.2-12.6-5.2c-9.1,0-16.3,7.4-16.3,16.8v0.1c0,9.5,7,16.8,16.2,16.8c6.3,0,10-2.9,12.9-5.6
	l0.5-0.5l-2.5-2.4L158.9,52.8z"/>
<polygon class="st0" points="179.2,45.7 197.1,45.7 197.1,42.2 179.2,42.2 179.2,31.2 199.2,31.2 199.2,27.8 175.6,27.8 175.6,60.4 
	199.4,60.4 199.4,57 179.2,57 "/>
<path class="st0" d="M226.5,27.8h-12v32.6h3.6V48.7h7.8c6.4,0,12.9-3.3,12.9-10.7C238.8,31.8,234,27.8,226.5,27.8z M235.1,38.2
	c0,4.3-3.6,7-9.1,7h-7.9v-14h8.2C231.9,31.2,235.1,33.8,235.1,38.2z"/>
<polygon class="st0" points="251.1,27.8 251.1,31.2 262,31.2 262,60.4 265.6,60.4 265.6,31.2 276.5,31.2 276.5,27.8 "/>
</svg>
