<?xml version="1.0" encoding="utf-8"?>
<!-- Generator: Adobe Illustrator 22.1.0, SVG Export Plug-In . SVG Version: 6.00 Build 0)  -->
<svg version="1.1" id="Capa_1" xmlns="http://www.w3.org/2000/svg" xmlns:xlink="http://www.w3.org/1999/xlink" x="0px" y="0px"
	 viewBox="0 0 49.7 49.7" style="enable-background:new 0 0 49.7 49.7;" xml:space="preserve">
<style type="text/css">
	.st0{fill:#FFFFFF;}
</style>
<path class="st0" d="M24.8,0C11.1,0,0,11.1,0,24.8s11.1,24.8,24.8,24.8c13.7,0,24.8-11.1,24.8-24.8S38.5,0,24.8,0z M14.1,14.4h21.4
	c0.6,0,1.2,0.2,1.7,0.5L24.8,25.7L12.4,14.8C12.9,14.5,13.5,14.4,14.1,14.4z M10.5,32.2V17.9c0-0.7,0.2-1.3,0.6-1.9l8.9,7.8l-9,10.1
	C10.7,33.4,10.5,32.9,10.5,32.2z M35.5,35.8H14.1c-0.7,0-1.3-0.2-1.9-0.5L21.4,25l2.9,2.5c0.2,0.1,0.4,0.2,0.6,0.2
	c0.2,0,0.4-0.1,0.6-0.2l2.9-2.5l9.1,10.2C36.9,35.6,36.2,35.8,35.5,35.8z M39.1,32.2c0,0.6-0.2,1.2-0.5,1.7l-9-10.1l8.9-7.8
	c0.3,0.6,0.6,1.2,0.6,1.9V32.2z"/>
</svg>
