<?xml version="1.0" encoding="utf-8"?>
<!-- Generator: Adobe Illustrator 22.1.0, SVG Export Plug-In . SVG Version: 6.00 Build 0)  -->
<svg version="1.1" id="Layer_1" xmlns="http://www.w3.org/2000/svg" xmlns:xlink="http://www.w3.org/1999/xlink" x="0px" y="0px"
	 viewBox="0 0 49.7 49.7" style="enable-background:new 0 0 49.7 49.7;" xml:space="preserve">
<style type="text/css">
	.st0{fill:#E31B23;}
</style>
<path class="st0" d="M24.8,0C11.1,0,0,11.1,0,24.8c0,13.7,11.1,24.8,24.8,24.8c13.7,0,24.8-11.1,24.8-24.8C49.7,11.1,38.5,0,24.8,0z
	 M39.2,18.4c-0.4,1.9-2.7,8.4-7,14.2c-1.9,2.4-4.1,4.9-6.9,6.5c-1,0.6-3.1,1.4-4.4,0.8c-2.7-1.1-3.6-5.7-4.4-8.8
	c-0.5-1.8-0.9-3.5-1.4-5.1c-0.4-1.2-0.6-2.4-1.3-3.5c-1.1-1.8-2.6-0.1-4.2-0.3c-0.7-0.1-0.9-0.6-1.3-1.4c2.3-1.9,4.4-4.1,7.1-5.7
	c0.8-0.5,2.3-1,3.5-0.7c1.1,0.3,2,1.8,2.4,3c0.5,1.4,0.7,3.1,0.9,4.5c0.4,2.4,0.3,6.1,2.1,8c2,2.1,3.5-0.8,4.3-2.3
	c0.7-1.3,1.3-2.7,1.4-3.9c0.3-3-1.2-3.4-3.9-3.2c1.5-4.7,6-6.7,7.3-6.9c1.6-0.2,4-0.2,5.1,1.2C39.4,15.8,39.4,17.1,39.2,18.4z"/>
</svg>
